<?xml version="1.0" standalone="no"?>
<!DOCTYPE svg PUBLIC "-//W3C//DTD SVG 20010904//EN"
 "http://www.w3.org/TR/2001/REC-SVG-20010904/DTD/svg10.dtd">
<svg version="1.0" xmlns="http://www.w3.org/2000/svg"
 width="512.000000pt" height="512.000000pt" viewBox="0 0 512.000000 512.000000"
 preserveAspectRatio="xMidYMid meet">

<g transform="translate(0.000000,512.000000) scale(0.100000,-0.100000)"
fill="#000000" stroke="none">
<path d="M2421 5089 c-94 -24 -101 -31 -24 -23 138 15 361 -36 505 -113 l66
-36 66 17 c36 10 66 21 66 25 0 11 -137 78 -205 101 -157 54 -338 65 -474 29z"/>
<path d="M2172 5014 c-96 -25 -90 -31 39 -37 166 -7 322 -54 455 -137 16 -10
32 -8 83 7 34 10 62 23 62 28 -1 14 -132 80 -209 106 -142 47 -326 61 -430 33z"/>
<path d="M1989 4928 c-38 -23 -37 -38 3 -38 66 0 215 -45 317 -96 l104 -52 65
20 c76 23 74 28 -33 81 -104 52 -226 87 -332 95 -82 7 -99 5 -124 -10z"/>
<path d="M3177 4826 l-68 -21 124 -120 c107 -104 129 -131 164 -202 66 -132
78 -260 38 -413 -23 -88 -21 -90 55 -66 l64 21 19 75 c11 44 19 117 20 175 3
187 -53 298 -238 470 l-110 101 -68 -20z"/>
<path d="M2891 4739 l-64 -21 124 -121 c131 -128 171 -186 203 -296 22 -75 21
-216 -3 -316 -11 -44 -18 -82 -15 -84 2 -2 31 4 65 14 41 13 64 26 70 39 21
50 39 164 39 247 0 105 -29 208 -84 292 -29 47 -250 268 -265 266 -3 0 -35 -9
-70 -20z"/>
<path d="M2605 4652 c-27 -9 -52 -17 -54 -19 -2 -2 52 -58 121 -126 100 -98
131 -135 156 -187 66 -136 76 -244 41 -406 -11 -53 -18 -98 -15 -101 2 -3 34
5 69 16 l64 22 22 100 c25 117 27 213 6 292 -18 68 -62 158 -102 209 -51 63
-222 218 -240 217 -10 0 -40 -8 -68 -17z"/>
<path d="M1731 4417 c-23 -108 2 -159 142 -290 58 -53 108 -93 111 -89 3 5 8
27 12 50 l6 41 -106 102 c-113 108 -133 135 -145 202 l-8 42 -12 -58z"/>
<path d="M1686 4229 c-17 -85 2 -159 52 -212 15 -16 66 -65 114 -108 l86 -80
11 50 10 49 -82 79 c-139 133 -146 141 -163 199 -8 30 -17 54 -18 54 -2 0 -6
-14 -10 -31z"/>
<path d="M1641 4026 c-13 -61 -9 -112 14 -157 19 -36 227 -231 236 -222 4 5
11 26 14 49 l7 41 -106 98 c-108 101 -131 134 -145 208 l-8 42 -12 -59z"/>
<path d="M3575 3969 c-40 -43 -75 -57 -325 -132 -281 -85 -313 -91 -455 -91
-214 -1 -396 59 -568 186 -37 28 -69 49 -71 47 -2 -2 -8 -24 -14 -48 -12 -51
-12 -52 105 -130 83 -56 190 -103 301 -133 93 -24 303 -29 397 -9 135 30 541
161 579 188 40 29 90 111 84 139 -2 12 -11 7 -33 -17z"/>
<path d="M1596 3840 c-12 -64 -6 -126 17 -169 12 -23 69 -85 127 -138 l105
-96 14 49 13 48 -110 106 c-106 100 -142 148 -142 187 0 10 -4 24 -9 31 -6 10
-10 4 -15 -18z"/>
<path d="M3546 3790 c-9 -16 -36 -41 -59 -54 -69 -40 -528 -173 -637 -185
-230 -25 -486 46 -673 188 -72 54 -69 54 -82 -19 -6 -34 -4 -37 57 -83 79 -60
220 -129 318 -157 96 -28 299 -38 406 -20 105 16 551 156 597 186 43 28 72 71
88 128 13 48 8 54 -15 16z"/>
<path d="M1552 3642 c-28 -121 -6 -167 138 -301 60 -56 111 -98 113 -94 3 5 8
28 12 51 l7 44 -106 100 c-115 108 -135 136 -145 207 l-6 46 -13 -53z"/>
<path d="M3506 3599 c-10 -16 -34 -41 -54 -54 -44 -29 -459 -158 -581 -181
-112 -21 -294 -14 -406 15 -104 27 -243 95 -328 159 -37 29 -70 52 -71 52 -2
0 -7 -16 -10 -36 -4 -19 -9 -41 -12 -49 -8 -20 116 -110 221 -160 50 -24 128
-54 175 -66 108 -27 275 -36 377 -19 78 12 545 151 594 176 42 21 87 80 104
136 8 28 14 53 12 54 -2 2 -11 -10 -21 -27z"/>
<path d="M3456 3395 c-30 -46 -90 -73 -306 -139 -335 -101 -328 -100 -485
-100 -112 0 -158 4 -229 22 -135 34 -297 115 -379 190 -32 30 -42 24 -52 -34
-6 -40 -5 -43 38 -78 166 -136 431 -218 647 -202 109 8 194 29 465 115 216 68
221 70 261 115 25 27 46 62 52 88 13 51 10 57 -12 23z"/>
<path d="M3390 3181 c-50 -52 -35 -46 -365 -146 -254 -76 -355 -91 -506 -75
-174 19 -339 84 -474 185 -33 25 -63 45 -67 45 -4 0 -11 -19 -16 -42 -11 -52
1 -69 100 -134 160 -107 324 -155 523 -155 148 0 211 14 548 119 228 72 263
97 295 215 6 20 10 37 9 36 -1 -1 -22 -22 -47 -48z"/>
<path d="M3225 2941 l-50 -18 -21 -76 c-11 -41 -34 -102 -49 -134 -35 -71
-150 -190 -220 -226 -66 -34 -53 -33 47 3 189 69 303 194 358 392 11 40 20 74
20 75 0 7 -40 0 -85 -16z"/>
<path d="M2951 2857 l-64 -22 -18 -71 c-35 -141 -116 -260 -234 -341 -44 -31
-47 -34 -20 -29 17 4 63 22 104 41 89 43 191 141 238 230 30 58 78 216 64 214
-3 0 -35 -10 -70 -22z"/>
<path d="M2664 2770 l-61 -20 -17 -67 c-23 -95 -68 -183 -128 -248 l-50 -55
45 0 c41 0 51 5 103 53 92 84 153 194 179 325 8 37 9 37 -71 12z"/>
<path d="M1878 2253 c-20 -23 -29 -62 -21 -91 5 -21 11 -22 99 -22 l94 0 -19
39 c-40 77 -117 115 -153 74z"/>
<path d="M2580 1006 c0 -169 -3 -235 -14 -259 -62 -151 -413 -194 -510 -63
-20 26 -21 43 -24 266 l-3 239 -87 -31 c-161 -56 -289 -134 -372 -225 -96
-105 -120 -184 -120 -398 0 -193 34 -280 142 -365 271 -215 834 -223 1228 -19
121 64 212 137 266 217 63 91 69 120 69 332 0 182 0 186 -28 242 -68 138 -272
255 -494 284 l-53 7 0 -227z"/>
</g>
</svg>
